<svg width="256" height="256" viewBox="0 0 67.733 67.733" xmlns="http://www.w3.org/2000/svg"><path class="selected" fill="none" d="M7.89 17.826h11.354v11.355H7.89z"/><path d="M27.113 45.873l-8.107-7.335 16.68-15.466 19.247-.057zm1.567 1.397l5.337-4.474-.034 9.878zM18.608 22.254l7.268 7.234-7.256 6.858zm-2.134 4.36l-4.35.023 4.406-4.405zm41.502-5.382c-6.96.035-22.62-.215-23.085-.034l-7.471 6.995-9.164-9.095s-.068-.295-.795-.284c-.34 0-.545.182-.545.182L8.946 27s-.319.34-.25.727c.079.533.647.726.647.726l7.176.034s-.17 10.015.034 10.424 17.68 16.703 17.68 16.703.33.341.681.398c.727.113.897-.647.897-.647l.068-14.217s15.613-12.808 22.074-18.145c.193-.16.41.034.466-.863.057-.556-.08-.92-.443-.908" fill="#f7931d"/><circle cx="33.867" cy="33.867" r="29.633" fill="#f7931d" fill-opacity=".061" stroke="#f3902d" stroke-width="2"/></svg>